<?xml version="1.0" standalone="no"?><!-- Generator: Gravit.io --><svg xmlns="http://www.w3.org/2000/svg" xmlns:xlink="http://www.w3.org/1999/xlink" style="isolation:isolate" viewBox="208.5 28.5 98.602 273.204" width="98.602" height="273.204"><g><g><path class="flicker" d=" M 279.59 208.697 Q 266.531 182.936 257.797 130 C 229.129 178.861 214.203 217.005 213 244.414 C 217.07 274.636 231.855 294.525 257.797 297.08 C 283.739 299.636 302.157 261.853 302.594 244.414 C 303.031 226.975 286.351 222.035 279.59 208.697 Z " fill="rgb(42,192,190)" vector-effect="non-scaling-stroke" stroke-width="3" stroke="rgb(0,0,0)" stroke-linejoin="miter" stroke-linecap="square" stroke-miterlimit="3"/><linearGradient id="_lgradient_0" x1="0" y1="0.5" x2="1.0503876630390854" y2="0.8650609731658452" gradientTransform="matrix(42.23,0,0,107.155,218.448,164.506)" gradientUnits="userSpaceOnUse"><stop offset="0%" stop-opacity="1" style="stop-color:rgb(255,255,255)"/><stop offset="98.26086956521739%" stop-opacity="1" style="stop-color:rgb(42,192,190)"/></linearGradient><path d=" M 248.716 164.506 C 255.076 197.206 265.868 239.167 257.797 253.494 C 249.725 267.821 241.66 273.679 233.582 271.05 C 226.061 269.807 221.022 260.934 218.448 244.414 C 220.512 222.966 230.607 196.336 248.716 164.506 Z " fill="url(#_lgradient_0)"/></g><g><linearGradient id="_lgradient_1" x1="0.4259994540185742" y1="1.22152157830446" x2="0.6691441051004048" y2="0.49366496387552095" gradientTransform="matrix(57.102,0,0,79.999,234.898,33)" gradientUnits="userSpaceOnUse"><stop offset="30.434782608695656%" stop-opacity="1" style="stop-color:rgb(215,29,94)"/><stop offset="99.1304347826087%" stop-opacity="1" style="stop-color:rgb(228,213,130)"/></linearGradient><path d=" M 256.696 33 C 261.383 52.851 245.642 64.021 236.943 81.888 C 228.245 99.756 249.665 112.871 256.696 112.999 Q 263.727 113.127 292 74 L 275 86 Q 281.332 67.889 280.893 66.086 C 280.455 64.283 270.727 46.397 256.696 33 Z " fill="url(#_lgradient_1)" vector-effect="non-scaling-stroke" stroke-width="3" stroke="rgb(0,0,0)" stroke-linejoin="miter" stroke-linecap="square" stroke-miterlimit="3"/></g></g></svg>